<?xml version="1.0" encoding="utf-8"?>
<!-- Generator: Adobe Illustrator 21.0.0, SVG Export Plug-In . SVG Version: 6.00 Build 0)  -->
<svg version="1.1" id="Layer_1" xmlns="http://www.w3.org/2000/svg" xmlns:xlink="http://www.w3.org/1999/xlink" x="0px" y="0px"
	 width="16px" height="16px" viewBox="0 0 16 16" style="enable-background:new 0 0 16 16;" xml:space="preserve">
<path d="M11.7,12.7l4-4c0.1-0.1,0.2-0.2,0.2-0.3c0-0.1,0-0.2,0-0.2c0,0,0-0.1,0-0.1c0,0,0-0.1,0-0.1c0-0.1,0-0.2,0-0.2
	c-0.1-0.1-0.1-0.2-0.2-0.3l-4-4c-0.4-0.4-1-0.3-1.4,0.1c-0.3,0.4-0.3,1,0,1.3L12.6,7H5C4.4,7,4,7.4,4,8s0.4,1,1,1h7.6l-2.3,2.3
	c-0.4,0.4-0.4,1,0,1.4C10.7,13.1,11.3,13.1,11.7,12.7z"/>
<path d="M7,14c0-0.6-0.4-1-1-1H3c-0.6,0-1-0.4-1-1V4c0-0.6,0.4-1,1-1h3c0.6,0,1-0.4,1-1S6.6,1,6,1H3C1.3,1,0,2.3,0,4v8
	c0,1.7,1.3,3,3,3h3C6.6,15,7,14.6,7,14z"/>
<path d="M6,3c0.6,0,1,0.4,1,1v0.5c0,0.6,0.4,1,1,1s1-0.4,1-1V4c0-1.7-1.3-3-3-3"/>
<path d="M6,15c1.7,0,3-1.3,3-3v-0.5c0-0.6-0.4-1-1-1s-1,0.4-1,1V12c0,0.6-0.4,1-1,1"/>
</svg>
